<svg id="Layer_1" data-name="Layer 1" xmlns="http://www.w3.org/2000/svg" viewBox="0 0 100 100"><path d="M59,58.56l24,24A41.38,41.38,0,0,1,62.32,95.06l-8.83-33-3.3.47V96.24H48.07a43,43,0,0,1-21.32-5.89l17-29.44-2.59-2.12L17.33,82.58A41.36,41.36,0,0,1,4.85,61.85L38.06,53l-.35-3.3h-34V47A41.6,41.6,0,0,1,9.56,26.29l30,17.31,2-2.36L17.33,16.87A42.23,42.23,0,0,1,38.06,4.5l9.07,33.68L50.19,38V3.32l2.12-.11a42,42,0,0,1,21.31,6L56.08,39.48l2.47,1.88,24.5-24.49A42.94,42.94,0,0,1,95.41,37.59L61.85,46.66l.47,3.06H96.59l.12.59V51a43.07,43.07,0,0,1-6,22.14L60.9,56Zm-4-3.77a6.83,6.83,0,1,0-4.83,2A6.62,6.62,0,0,0,55,54.79Z"/></svg>