<svg id="Layer_1" data-name="Layer 1" xmlns="http://www.w3.org/2000/svg" xmlns:xlink="http://www.w3.org/1999/xlink" viewBox="0 0 100 100"><defs><style>.cls-1{fill:url(#Fading_Sky);}.cls-2{fill:#fff;}</style><linearGradient id="Fading_Sky" x1="32.32" y1="49.83" x2="67.74" y2="49.83" gradientUnits="userSpaceOnUse"><stop offset="0" stop-color="#2484c6"/><stop offset="1" stop-color="#2484c6" stop-opacity="0"/></linearGradient></defs><path class="cls-1" d="M55.42,41.92a2.58,2.58,0,0,1,1.58.52,1.66,1.66,0,0,1,.69,1.4,2.08,2.08,0,0,1-.89,1.88,7.77,7.77,0,0,1-2,.93c-.72.23-1.38.47-2,.72A1.27,1.27,0,0,0,52,48.62c0,1.12.51,1.68,1.52,1.68A3.55,3.55,0,0,0,54.76,50,3.49,3.49,0,0,1,56,49.61a1.65,1.65,0,0,1,1.87,1.87,3.3,3.3,0,0,1-1.53,2.81c-.92.39-1.65.74-2.19,1a15.39,15.39,0,0,0-1.5.94c-.46.33-.69.62-.69.89l1.08,1.47,1.48.15a6.54,6.54,0,0,0,3.62-1,8.59,8.59,0,0,0,2.71-2.89,15.16,15.16,0,0,0,1.7-4.43,25.5,25.5,0,0,0,.59-5.64,10.63,10.63,0,0,0-.47-2.66c-.31-1.12-.66-2.27-1-3.45s-.73-2.3-1.06-3.35A10.88,10.88,0,0,1,60.06,33l.49-.05q2.56,0,5.07,6.4a45.58,45.58,0,0,1,1.58,4.93,16,16,0,0,1,.54,3.84,16.49,16.49,0,0,1-3.5,10.15c-.59.66-1.18,1.3-1.77,2s-1.18,1.28-1.77,1.94a4.35,4.35,0,0,1,1.42,2.81l-.83,1.67-1.83.69A3.14,3.14,0,0,1,58,66.78c-.59-.35-1.17-.72-1.73-1.11s-1.06-.77-1.5-1.11A2.43,2.43,0,0,0,54,64l-1.48.69a4.45,4.45,0,0,1-.39,1.82,5.46,5.46,0,0,1-1,1.56,5.16,5.16,0,0,1-1.5,1.06,4.45,4.45,0,0,1-1.85.39,3.76,3.76,0,0,1-2.63-1A3.28,3.28,0,0,1,44,66q0-2.85,3.15-6.45l.39-2.41-.29-.6a3.48,3.48,0,0,0-.86.33l-1.24.59c-.44.21-.88.41-1.33.59a3.14,3.14,0,0,1-1.15.27c-1.38,0-2.07-.58-2.07-1.73A2.44,2.44,0,0,1,41.09,55a6.06,6.06,0,0,1,1.33-1.16,12,12,0,0,1,1.75-.94A15,15,0,0,0,45.92,52a6,6,0,0,0,1.33-1.06,2.05,2.05,0,0,0,.54-1.43c-.1-.49-.21-1-.35-1.53a2.82,2.82,0,0,0-.76.49,11.66,11.66,0,0,1-1.08.82,11.2,11.2,0,0,1-1.31.76,3.07,3.07,0,0,1-1.38.35q-1.62,0-1.62-2.07A4.34,4.34,0,0,1,43.11,45a15,15,0,0,1,1.26-.82l1.74-1c.6-.34,1.11-.66,1.56-.94s.66-.45.66-.51-.12-.34-.37-.52a4.22,4.22,0,0,0-.84-.49,7.2,7.2,0,0,0-.93-.37,2.58,2.58,0,0,0-.67-.15,8.07,8.07,0,0,0-3.91.94,9.21,9.21,0,0,0-3,2.56,11.67,11.67,0,0,0-1.92,3.77A15.31,15.31,0,0,0,36,52q0,6,5.76,10.55l0,.19-.54.3A5.28,5.28,0,0,1,38,61.75a13.18,13.18,0,0,1-2.89-3.13,17.91,17.91,0,0,1-2-4.11,12.6,12.6,0,0,1-.79-4.21q0-4.68,1.33-6.95A5.57,5.57,0,0,1,34.86,42l1.87-1.62c.67-.59,1.34-1.2,2-1.83a8.39,8.39,0,0,0,1.52-1.87c-.06-.49-.15-1-.24-1.48a3.67,3.67,0,0,1,1.1-2.61,3.59,3.59,0,0,1,2.64-1.13,2,2,0,0,1,1.75.71,5.8,5.8,0,0,1,.71,1.56c.17.55.35,1.07.55,1.55A1.23,1.23,0,0,0,48,36a1.53,1.53,0,0,0,1.18-.44,3.12,3.12,0,0,0,.61-1.09,7.76,7.76,0,0,0,.35-1.42,5.09,5.09,0,0,1,.42-1.43,2.84,2.84,0,0,1,.86-1.09,2.58,2.58,0,0,1,1.6-.44,3.59,3.59,0,0,1,2.59,1.08,3.48,3.48,0,0,1,1.11,2.57,3.87,3.87,0,0,1-.62,1.89c-.41.71-.86,1.42-1.36,2.15l-1.35,2a3.43,3.43,0,0,0-.66,1.45l.88,1C54.24,42.14,54.83,42,55.42,41.92Z"/><path class="cls-2" d="M50,3.31A46.52,46.52,0,1,0,96.55,49.83,46.52,46.52,0,0,0,50,3.31Zm0,84.4A37.88,37.88,0,1,1,87.91,49.83,37.87,37.87,0,0,1,50,87.71Z"/><path class="cls-2" d="M50,17.1A32.73,32.73,0,1,0,82.76,49.83,32.73,32.73,0,0,0,50,17.1Zm0,61.66A28.93,28.93,0,1,1,79,49.83,28.92,28.92,0,0,1,50,78.76Z"/><path class="cls-2" d="M50,23.22A26.61,26.61,0,1,0,76.64,49.83,26.61,26.61,0,0,0,50,23.22Zm0,50.12A23.51,23.51,0,1,1,73.54,49.83,23.51,23.51,0,0,1,50,73.34Z"/></svg>