<svg id="Layer_1" data-name="Layer 1" xmlns="http://www.w3.org/2000/svg" viewBox="0 0 479.6 479.6"><defs><style>.cls-1{fill:#231f20;}</style></defs><title>Brakwaku Jr Logo</title><path d="M367.85,436.18a70.88,70.88,0,0,0-11.66-29.86c-2.79-4-5.91-7.82-8.52-12a19.39,19.39,0,0,1-1.87-17.93,78.24,78.24,0,0,0,5.12-33.5,28.92,28.92,0,0,0-3-11.42c-2.54-4.83-6.46-6.73-11.77-5.73-5.68,1.07-11.07,3.13-16.53,4.94a19.19,19.19,0,0,1-6.08,1.28,4.26,4.26,0,0,1-4.26-2.89,10.74,10.74,0,0,1-.83-3.93c-.06-6.65-.14-13.3-.18-19.94-.1-16.82,0-33.64-.22-50.46-.17-15.31-.11-30.62-.25-45.92-.12-13.11,0-26.22-.08-39.33,0-3.22.08-6.45-.16-9.67a19.26,19.26,0,0,1,.92-8.28c1.31-3.48,2.79-6.9,2.48-10.75,0-.37,0-.78.51-.85s1-.13,1.21.35c.77,1.77,2.4,1.4,3.8,1.57a1.44,1.44,0,0,0,1.49-1.06c1.11-2.53,0-4.61-2.69-5l-.48-.09a1.62,1.62,0,0,0-2,1.05c-.18.45-.33.82-.95.69s-.72-.57-.69-1.1q.16-2.75.31-5.5c.08-1.43.15-2.85.25-4.28,0-.41.16-.83.7-.84a.71.71,0,0,1,.83.71c.15,2.08,1.56,2.51,3.29,2.66a1.81,1.81,0,0,0,2.14-1.38A8.28,8.28,0,0,0,319,124c-.17-1.14-.62-2-1.92-2.18-2.27-.28-2.82-.41-3.41,1.1-.19.49-.57.53-1,.44a.76.76,0,0,1-.63-.9c.17-2.81.32-5.62.5-8.43,0-.43.07-1,.71-.94a1.09,1.09,0,0,1,1.05.86c.68,2.28.7,2.22,3.21,2.53a1.71,1.71,0,0,0,2.09-1.37,9,9,0,0,0,.27-4.23c-.3-1.7-.79-2.16-2.83-2.4-1.72-.21-1.86-.14-2.57,1.65a.78.78,0,0,1-1,.58c-.59-.09-.74-.42-.7-.94.07-.85.09-1.72.21-2.56a1.82,1.82,0,0,0-1.31-2.15,50.19,50.19,0,0,0-10-3.15h-8.09c-.28.07-.55.16-.83.2a48,48,0,0,0-9.09,2.44,1.85,1.85,0,0,0-1.42,2.11c.1,1.05.13,2.12.21,3.17,0,.62-.11,1-.82,1.1s-1,0-1.16-.7a1.74,1.74,0,0,0-2.4-1.55,6.5,6.5,0,0,1-1,.09,2,2,0,0,0-1.83,1.55,8.34,8.34,0,0,0,.14,5.18,1.6,1.6,0,0,0,1.87,1.2c2.22-.26,3.14-.33,3.41-2.63.08-.68.7-.74,1.23-.78s.64.44.66.84c.15,2.85.27,5.71.4,8.56,0,.55-.32.8-.82.9a.82.82,0,0,1-1-.63,1.45,1.45,0,0,0-1.43-1.13,16.71,16.71,0,0,0-2.07.22,1.89,1.89,0,0,0-1.61,1.49A7.86,7.86,0,0,0,276,128a1.75,1.75,0,0,0,1.17,1.31,3.28,3.28,0,0,0,4.16-2.43,2.08,2.08,0,0,1,.21-.57c.29-.46.79-.38,1.22-.36s.35.39.36.67q.25,5,.49,9.9c0,.49.06,1-.62,1.14s-1,.1-1.28-.55a1.3,1.3,0,0,0-1.23-.88,23.33,23.33,0,0,0-2.66.34,1.33,1.33,0,0,0-.94.73,4.68,4.68,0,0,0,0,4.36,1.32,1.32,0,0,0,.95.71,4.06,4.06,0,0,0,4.16-1.7,1.38,1.38,0,0,1,1.5-.56c.58,0,.42.63.41,1A20.41,20.41,0,0,0,286,151a11.24,11.24,0,0,1,1.06,5.45c-.14,4.45-.08,8.9-.17,13.35-.23,11.92,0,23.85-.25,35.77-.25,12.29-.05,24.58-.23,36.88-.23,16.17,0,32.34-.28,48.52-.09,5.23-.08,10.46,0,15.68,0,1.16-.38,1.53-1.48,1.67a118.85,118.85,0,0,0-12.51,2.31c-6.36,1.52-12.46,3.66-17.86,7.47a21.28,21.28,0,0,0-9.16,14.08,43.08,43.08,0,0,0-.07,14.61,86.67,86.67,0,0,0,4.87,16.92c2,5.13,2,10.11-.58,15a40.32,40.32,0,0,1-3.08,5c-4,5.6-8.5,10.87-12.18,16.74-6.92,11.06-9.89,23.2-9.88,36.12a60.77,60.77,0,0,0,1.08,11.56,46.25,46.25,0,0,0,16.44,27.9c7.24,5.92,15.59,9.63,24.53,12.12a75.8,75.8,0,0,0,23.1,3c6-.21,11.93-.15,17.89,0A73,73,0,0,0,325,489.46,76.56,76.56,0,0,0,352.1,478a36.43,36.43,0,0,0,15.66-23.15A51.26,51.26,0,0,0,367.85,436.18Zm-54-63.13q-1.11,1.23-2.21,2.43t-2.21,2.43a5.43,5.43,0,0,1,1.78,3.51l-1,2.09-2.28.86a3.9,3.9,0,0,1-1.85-.65q-1.11-.65-2.15-1.38T302.06,381a3.19,3.19,0,0,0-1-.65l-1.85.86a5.55,5.55,0,0,1-.49,2.28,6.7,6.7,0,0,1-1.29,1.94,6.11,6.11,0,0,1-1.88,1.32,5.47,5.47,0,0,1-2.31.49,4.72,4.72,0,0,1-3.29-1.26,4.11,4.11,0,0,1-1.38-3.17q0-3.57,3.94-8.06l.49-3-.37-.74a4.55,4.55,0,0,0-1.08.4l-1.54.74q-.83.4-1.66.74a3.94,3.94,0,0,1-1.45.34q-2.58,0-2.58-2.15a3,3,0,0,1,.68-2,7.64,7.64,0,0,1,1.66-1.45,14.66,14.66,0,0,1,2.18-1.17,19.35,19.35,0,0,0,2.18-1.11,7.25,7.25,0,0,0,1.66-1.32,2.54,2.54,0,0,0,.68-1.78q-.18-.92-.43-1.91a3.28,3.28,0,0,0-1,.62,16.52,16.52,0,0,1-1.35,1,14.12,14.12,0,0,1-1.63,1,3.83,3.83,0,0,1-1.72.43q-2,0-2-2.58a5.46,5.46,0,0,1,2.28-4.18q.49-.37,1.57-1l2.18-1.29q1.11-.65,1.94-1.17t.83-.65q0-.31-.46-.65a6.46,6.46,0,0,0-1-.62,9.23,9.23,0,0,0-1.17-.46,3.25,3.25,0,0,0-.83-.18,10.19,10.19,0,0,0-4.89,1.17,11.65,11.65,0,0,0-3.75,3.2,14.79,14.79,0,0,0-2.4,4.71,19.11,19.11,0,0,0-.83,5.69q0,7.51,7.2,13.17l.06.25-.68.37a6.63,6.63,0,0,1-4.06-1.57,16.49,16.49,0,0,1-3.6-3.91,22.61,22.61,0,0,1-2.55-5.14,15.87,15.87,0,0,1-1-5.26q0-5.84,1.66-8.67a7,7,0,0,1,1.51-1.66l2.34-2q1.26-1.11,2.49-2.28a10.64,10.64,0,0,0,1.91-2.34q-.12-.92-.31-1.85a4.53,4.53,0,0,1,1.38-3.26,4.45,4.45,0,0,1,3.29-1.42,2.42,2.42,0,0,1,2.18.89,7.27,7.27,0,0,1,.89,1.94,19.18,19.18,0,0,0,.68,1.94,1.54,1.54,0,0,0,1.6.89,1.87,1.87,0,0,0,1.48-.55,4,4,0,0,0,.77-1.35,10.36,10.36,0,0,0,.43-1.78,6.7,6.7,0,0,1,.52-1.78,3.63,3.63,0,0,1,1.08-1.35,3.18,3.18,0,0,1,2-.55,4.48,4.48,0,0,1,3.23,1.35,4.33,4.33,0,0,1,1.38,3.2,4.83,4.83,0,0,1-.77,2.37q-.77,1.32-1.69,2.68L300.4,350a4.32,4.32,0,0,0-.83,1.82l1.11,1.29q1.11-.24,2.21-.43a3.2,3.2,0,0,1,2,.65,2.08,2.08,0,0,1,.86,1.75,2.61,2.61,0,0,1-1.11,2.34,9.71,9.71,0,0,1-2.46,1.17q-1.35.43-2.46.89a1.6,1.6,0,0,0-1.11,1.57q0,2.09,1.91,2.09a4.42,4.42,0,0,0,1.57-.43,4.43,4.43,0,0,1,1.57-.43,2.07,2.07,0,0,1,2.34,2.34,4.13,4.13,0,0,1-1.91,3.51q-1.72.74-2.74,1.29a18.32,18.32,0,0,0-1.88,1.17q-.86.62-.86,1.11l1.35,1.85,1.85.18a8.15,8.15,0,0,0,4.52-1.29,10.8,10.8,0,0,0,3.38-3.6,18.9,18.9,0,0,0,2.12-5.54,31.6,31.6,0,0,0,.74-7,13.15,13.15,0,0,0-.58-3.32q-.59-2.09-1.29-4.31t-1.32-4.18a13.81,13.81,0,0,1-.68-3l.62-.06q3.2,0,6.34,8a57.86,57.86,0,0,1,2,6.15,20.08,20.08,0,0,1,.68,4.8A20.57,20.57,0,0,1,313.9,373.05Z" transform="translate(-58.05 -56.46)"/><path class="cls-1" d="M297.85,56.46C165.41,56.46,58,163.82,58,296.26s107.36,239.8,239.8,239.8,239.8-107.36,239.8-239.8S430.28,56.46,297.85,56.46ZM506,224.6a4,4,0,1,1-4,4A4,4,0,0,1,506,224.6Zm3.79,23.8a8.71,8.71,0,1,1-8.71,8.71A8.71,8.71,0,0,1,509.76,248.4ZM290.4,81.37q3.13-3.4,9-3.4a12.28,12.28,0,0,1,7.74,2.34q.25,0,.34-.68.3-5.26.6-10.48.55-8.45,1.45-9.17a3.54,3.54,0,0,1,2.3-.72,8.7,8.7,0,0,1,3.79,1.06,14.2,14.2,0,0,1,3.06,2.07v.08a17,17,0,0,0,3.32,3.21A7.26,7.26,0,0,0,326.11,67a8.35,8.35,0,0,0,1.19-.08q1.11.17.72,1.32Q324.23,72,320.66,72a12.4,12.4,0,0,1-4.27-1,12.18,12.18,0,0,0-3.72-1,7,7,0,0,0-2.93,1q0,.13-.3,5.65-.21,1.91-.55,5.73,0,1-.13,2a7.92,7.92,0,0,1-.38,2,9.6,9.6,0,0,1-3.13,4.12,10.85,10.85,0,0,1-4.87,2.12,29.93,29.93,0,0,1-5.57.64,9.19,9.19,0,0,1-2.93-.38A6.89,6.89,0,0,1,289,90.77a5.45,5.45,0,0,1-1.51-3.06Q287.28,84.77,290.4,81.37Zm-199.06,288a4,4,0,1,1,4-4A4,4,0,0,1,91.34,369.38Zm-3.79-23.8a8.71,8.71,0,1,1,8.71-8.71A8.71,8.71,0,0,1,87.55,345.58ZM81.42,311.1a14.84,14.84,0,1,1,14.84-14.84A14.84,14.84,0,0,1,81.42,311.1Zm6.13-44.46a8.71,8.71,0,1,1,8.71-8.71A8.71,8.71,0,0,1,87.55,266.64Zm9.61-39.45a4,4,0,1,1,4,4A4,4,0,0,1,97.17,227.19ZM303.54,528a12.16,12.16,0,0,1-11,0q-3.06-1.62-3.06-4.34,0-3.28-.13-8.46,0-1.53-.13-4-.55-2.34-2.38-2.34a11.46,11.46,0,0,0-4,1.36,11.38,11.38,0,0,1-4,1.36,2.56,2.56,0,0,1-.51,0q-3.06-.59-2.72-2.13,2.25,0,5.27-2.57t4.68-2.57a4.38,4.38,0,0,1,2,.51q-1.15-3-2.93-3a9.18,9.18,0,0,0-3.7,1.57,9,9,0,0,1-4.17,1.57,3.65,3.65,0,0,1-1.66-.38q-2.08-1-2.08-2.34a1.81,1.81,0,0,1,.43-1.11,4.39,4.39,0,0,0,1.74.38q2,0,5-3.06t5.15-3.06a5.81,5.81,0,0,1,2.93.94,16.46,16.46,0,0,1,3,2.17q0,7.32,0,21.86,1.91-2.3,6.55-2.3a11.92,11.92,0,0,1,6,1.45q2.85,1.57,2.85,4.21T303.54,528Zm-5.69-37.54c-107.23,0-194.16-86.93-194.16-194.16S190.61,102.1,297.85,102.1,492,189,492,296.26,405.08,490.42,297.85,490.42ZM496.1,370.84a4,4,0,1,1,4-4A4,4,0,0,1,496.1,370.84Zm13.66-26.08a8.71,8.71,0,1,1,8.71-8.71A8.71,8.71,0,0,1,509.76,344.76Zm6.13-32.2a14.84,14.84,0,1,1,14.84-14.84A14.84,14.84,0,0,1,515.89,312.56Z" transform="translate(-58.05 -56.46)"/></svg>